name ./resultDataOpenSim/trcMotMarkerGrf/sub06/grf-13-04.mot
datacolumns 19
datarows 27
range 1.59600000 1.70000000
endheader

                time	     ground_force_vx	     ground_force_vy	     ground_force_vz	     ground_force_px	     ground_force_py	     ground_force_pz	   l_ground_force_vx	   l_ground_force_vy	   l_ground_force_vz	   l_ground_force_px	   l_ground_force_py	   l_ground_force_pz	     ground_torque_x	     ground_torque_y	     ground_torque_z	   l_ground_torque_x	   l_ground_torque_y	   l_ground_torque_z	
          1.59600000	         75.12167512	        591.51271650	        -20.84871593	          0.93332025	          0.00000000	          0.10071417	          0.00000000	          0.00000000	          0.00000000	          0.00000000	          0.00000000	          0.00000000	          0.00000000	          3.50721194	          0.00000000	          0.00000000	          0.00000000	          0.00000000	
          1.60000000	         79.17180272	        603.50671674	        -19.95405884	          0.93381612	          0.00000000	          0.10027197	          0.00000000	          0.00000000	          0.00000000	          0.00000000	          0.00000000	          0.00000000	          0.00000000	          3.62671296	          0.00000000	          0.00000000	          0.00000000	          0.00000000	
          1.60400000	         83.67368817	        615.19351384	        -19.43270668	          0.93425616	          0.00000000	          0.09986759	          0.00000000	          0.00000000	          0.00000000	          0.00000000	          0.00000000	          0.00000000	          0.00000000	          3.72186850	          0.00000000	          0.00000000	          0.00000000	          0.00000000	
          1.60800000	         88.66970601	        626.41673644	        -19.47166275	          0.93463900	          0.00000000	          0.09950756	          0.00000000	          0.00000000	          0.00000000	          0.00000000	          0.00000000	          0.00000000	          0.00000000	          3.78850518	          0.00000000	          0.00000000	          0.00000000	          0.00000000	
          1.61200000	         94.10974303	        637.00255155	        -20.16973633	          0.93496938	          0.00000000	          0.09919452	          0.00000000	          0.00000000	          0.00000000	          0.00000000	          0.00000000	          0.00000000	          0.00000000	          3.82491439	          0.00000000	          0.00000000	          0.00000000	          0.00000000	
          1.61600000	         99.87012991	        646.78445656	        -21.51313113	          0.93525974	          0.00000000	          0.09892495	          0.00000000	          0.00000000	          0.00000000	          0.00000000	          0.00000000	          0.00000000	          0.00000000	          3.83242186	          0.00000000	          0.00000000	          0.00000000	          0.00000000	
          1.62000000	        105.79037271	        655.63055073	        -23.37524769	          0.93553206	          0.00000000	          0.09869443	          0.00000000	          0.00000000	          0.00000000	          0.00000000	          0.00000000	          0.00000000	          0.00000000	          3.81539235	          0.00000000	          0.00000000	          0.00000000	          0.00000000	
          1.62400000	        111.70786027	        663.45301448	        -25.54240595	          0.93579607	          0.00000000	          0.09849424	          0.00000000	          0.00000000	          0.00000000	          0.00000000	          0.00000000	          0.00000000	          0.00000000	          3.78031665	          0.00000000	          0.00000000	          0.00000000	          0.00000000	
          1.62800000	        117.48247236	        670.19645090	        -27.75695917	          0.93606572	          0.00000000	          0.09831230	          0.00000000	          0.00000000	          0.00000000	          0.00000000	          0.00000000	          0.00000000	          0.00000000	          3.73430742	          0.00000000	          0.00000000	          0.00000000	          0.00000000	
          1.63200000	        123.01532270	        675.82444401	        -29.76469114	          0.93635621	          0.00000000	          0.09813790	          0.00000000	          0.00000000	          0.00000000	          0.00000000	          0.00000000	          0.00000000	          0.00000000	          3.68382528	          0.00000000	          0.00000000	          0.00000000	          0.00000000	
          1.63600000	        128.25765014	        680.30867622	        -31.35544605	          0.93667039	          0.00000000	          0.09796096	          0.00000000	          0.00000000	          0.00000000	          0.00000000	          0.00000000	          0.00000000	          0.00000000	          3.63431311	          0.00000000	          0.00000000	          0.00000000	          0.00000000	
          1.64000000	        133.20379740	        683.61784125	        -32.39021973	          0.93700273	          0.00000000	          0.09777189	          0.00000000	          0.00000000	          0.00000000	          0.00000000	          0.00000000	          0.00000000	          0.00000000	          3.59073361	          0.00000000	          0.00000000	          0.00000000	          0.00000000	
          1.64400000	        137.87672192	        685.71186537	        -32.81249949	          0.93734453	          0.00000000	          0.09756096	          0.00000000	          0.00000000	          0.00000000	          0.00000000	          0.00000000	          0.00000000	          0.00000000	          3.55826460	          0.00000000	          0.00000000	          0.00000000	          0.00000000	
          1.64800000	        142.32209556	        686.53955529	        -32.64547682	          0.93768522	          0.00000000	          0.09732176	          0.00000000	          0.00000000	          0.00000000	          0.00000000	          0.00000000	          0.00000000	          0.00000000	          3.54213763	          0.00000000	          0.00000000	          0.00000000	          0.00000000	
          1.65200000	        146.62520241	        686.03433832	        -31.97692049	          0.93801788	          0.00000000	          0.09705544	          0.00000000	          0.00000000	          0.00000000	          0.00000000	          0.00000000	          0.00000000	          0.00000000	          3.54603805	          0.00000000	          0.00000000	          0.00000000	          0.00000000	
          1.65600000	        150.94439524	        684.10398269	        -30.93536713	          0.93833420	          0.00000000	          0.09677052	          0.00000000	          0.00000000	          0.00000000	          0.00000000	          0.00000000	          0.00000000	          0.00000000	          3.56942525	          0.00000000	          0.00000000	          0.00000000	          0.00000000	
          1.66000000	        155.52246109	        680.62203007	        -29.67720836	          0.93860539	          0.00000000	          0.09647763	          0.00000000	          0.00000000	          0.00000000	          0.00000000	          0.00000000	          0.00000000	          0.00000000	          3.60516327	          0.00000000	          0.00000000	          0.00000000	          0.00000000	
          1.66400000	        160.62703450	        675.44254474	        -28.39631936	          0.93876796	          0.00000000	          0.09618776	          0.00000000	          0.00000000	          0.00000000	          0.00000000	          0.00000000	          0.00000000	          0.00000000	          3.63939167	          0.00000000	          0.00000000	          0.00000000	          0.00000000	
          1.66800000	        166.41791380	        668.43983583	        -27.30286975	          0.93876169	          0.00000000	          0.09591680	          0.00000000	          0.00000000	          0.00000000	          0.00000000	          0.00000000	          0.00000000	          0.00000000	          3.65480845	          0.00000000	          0.00000000	          0.00000000	          0.00000000	
          1.67200000	        172.83972873	        659.54230539	        -26.53248692	          0.93859265	          0.00000000	          0.09567633	          0.00000000	          0.00000000	          0.00000000	          0.00000000	          0.00000000	          0.00000000	          0.00000000	          3.63634073	          0.00000000	          0.00000000	          0.00000000	          0.00000000	
          1.67600000	        179.63879100	        648.71997975	        -26.08098137	          0.93830294	          0.00000000	          0.09545433	          0.00000000	          0.00000000	          0.00000000	          0.00000000	          0.00000000	          0.00000000	          0.00000000	          3.57619790	          0.00000000	          0.00000000	          0.00000000	          0.00000000	
          1.68000000	        186.45069092	        635.91384354	        -25.83625652	          0.93791200	          0.00000000	          0.09523266	          0.00000000	          0.00000000	          0.00000000	          0.00000000	          0.00000000	          0.00000000	          0.00000000	          3.47553986	          0.00000000	          0.00000000	          0.00000000	          0.00000000	
          1.68400000	        192.86516913	        620.95612024	        -25.62533038	          0.93742546	          0.00000000	          0.09500526	          0.00000000	          0.00000000	          0.00000000	          0.00000000	          0.00000000	          0.00000000	          0.00000000	          3.34218795	          0.00000000	          0.00000000	          0.00000000	          0.00000000	
          1.68800000	        198.46792415	        603.54902407	        -25.23200756	          0.93689348	          0.00000000	          0.09476654	          0.00000000	          0.00000000	          0.00000000	          0.00000000	          0.00000000	          0.00000000	          0.00000000	          3.18600067	          0.00000000	          0.00000000	          0.00000000	          0.00000000	
          1.69200000	        202.86456032	        583.29904142	        -24.43000246	          0.93633515	          0.00000000	          0.09450431	          0.00000000	          0.00000000	          0.00000000	          0.00000000	          0.00000000	          0.00000000	          0.00000000	          3.01434971	          0.00000000	          0.00000000	          0.00000000	          0.00000000	
          1.69600000	        205.67148850	        559.75170378	        -23.02969826	          0.93572464	          0.00000000	          0.09421549	          0.00000000	          0.00000000	          0.00000000	          0.00000000	          0.00000000	          0.00000000	          0.00000000	          2.82957309	          0.00000000	          0.00000000	          0.00000000	          0.00000000	
          1.70000000	        206.48578264	        532.43219615	        -20.92224617	          0.93507372	          0.00000000	          0.09390157	          0.00000000	          0.00000000	          0.00000000	          0.00000000	          0.00000000	          0.00000000	          0.00000000	          2.62944886	          0.00000000	          0.00000000	          0.00000000	          0.00000000	
